<?xml version="1.0" encoding="utf-8"?>
<!-- Generator: Adobe Illustrator 16.0.4, SVG Export Plug-In . SVG Version: 6.00 Build 0)  -->
<!DOCTYPE svg PUBLIC "-//W3C//DTD SVG 1.1//EN" "http://www.w3.org/Graphics/SVG/1.1/DTD/svg11.dtd">
<svg version="1.1" xmlns="http://www.w3.org/2000/svg" xmlns:xlink="http://www.w3.org/1999/xlink" x="0px" y="0px" width="100px"
	 height="100px" viewBox="0 0 100 100" enable-background="new 0 0 100 100" xml:space="preserve">
<g id="Layer_2" display="none">
	<rect display="inline" fill="#231F20" width="100" height="100"/>
</g>
<g id="Layer_4">
	<g>
		<path fill="#0FF403" d="M21.557,52.282c-1.795,0.093-3.527,0.137-5.162,0.137c-6.252,0-11.196-0.574-13.809-0.958v10.318
			c8.513,1.423,16.321,1.739,23.076,1.487C23.612,59.979,22.188,56.265,21.557,52.282z"/>
		<path fill="#0FF403" d="M80.248,44.245c0.127,1.107,0.197,2.231,0.197,3.371c0,2.594-0.335,5.108-0.961,7.505
			C90.521,56.703,98,61.168,98,61.168V49.776C91.612,47.311,85.692,45.467,80.248,44.245z"/>
	</g>
	<g>
		<path fill="#0FF403" d="M74.803,30.23c2.504,3.448,4.28,7.455,5.11,11.799c5.559,1.192,11.592,3.023,18.087,5.493V37.052
			C89.14,33.487,81.449,31.297,74.803,30.23z"/>
		<path fill="#0FF403" d="M21.189,47.616c0-2.891,0.421-5.68,1.192-8.321c-11.456,0.566-19.795-1.194-19.795-1.194V49.34
			c3.007,0.46,9.999,1.304,18.723,0.867C21.234,49.352,21.189,48.49,21.189,47.616z"/>
	</g>

		<rect x="34" y="34.362" fill="none" stroke="#FFFFFF" stroke-width="3.3854" stroke-linecap="round" stroke-linejoin="round" stroke-miterlimit="10" width="34" height="30.972"/>

		<line fill="none" stroke="#FFFFFF" stroke-width="3.1144" stroke-linecap="round" stroke-linejoin="round" stroke-miterlimit="10" x1="41.347" y1="30.469" x2="41.347" y2="39.183"/>

		<line fill="none" stroke="#FFFFFF" stroke-width="3.1144" stroke-linecap="round" stroke-linejoin="round" stroke-miterlimit="10" x1="60.653" y1="30.469" x2="60.653" y2="39.183"/>

		<line fill="none" stroke="#FFFFFF" stroke-width="1.5376" stroke-linecap="round" stroke-linejoin="round" stroke-miterlimit="10" x1="34" y1="44.821" x2="68" y2="44.821"/>
</g>
</svg>
