<?xml version="1.0" encoding="utf-8"?>
<!-- Generator: Adobe Illustrator 16.0.4, SVG Export Plug-In . SVG Version: 6.00 Build 0)  -->
<!DOCTYPE svg PUBLIC "-//W3C//DTD SVG 1.1//EN" "http://www.w3.org/Graphics/SVG/1.1/DTD/svg11.dtd">
<svg version="1.1" id="Layer_1" xmlns="http://www.w3.org/2000/svg" xmlns:xlink="http://www.w3.org/1999/xlink" x="0px" y="0px"
	 width="100px" height="100px" viewBox="0 0 100 100" enable-background="new 0 0 100 100" xml:space="preserve">
<rect x="6.391" y="5" fill="#09B700" width="88.798" height="61.543"/>
<line fill="none" stroke="#09B700" stroke-width="0" stroke-linecap="round" stroke-linejoin="round" x1="6.391" y1="78.825" x2="6.391" y2="78.433"/>
<g>
	<path fill="#FFFFFF" d="M23.914,59.583l3.75-17.5h2.5l3.75,17.5h-2.5l-0.938-4.375h-3.125l-0.938,4.375H23.914z M27.664,53.333h2.5
		l-1.25-7.5L27.664,53.333z"/>
	<path fill="#FFFFFF" d="M35.32,59.583v-17.5h3.75c0.807,0,1.53,0.085,2.168,0.254s1.196,0.427,1.675,0.771s0.846,0.801,1.104,1.367
		s0.386,1.228,0.386,1.982c0,1.094-0.231,1.926-0.693,2.495s-1.175,0.988-2.139,1.255c1.042,0.345,1.823,0.852,2.344,1.519
		s0.781,1.619,0.781,2.856c0,1.543-0.448,2.762-1.343,3.657s-2.114,1.343-3.657,1.343H35.32z M37.82,49.583h1.25
		c2.083,0,3.125-1.042,3.125-3.125c0-0.345-0.042-0.649-0.127-0.913s-0.186-0.483-0.303-0.659s-0.294-0.324-0.532-0.444
		s-0.454-0.213-0.649-0.278s-0.474-0.112-0.835-0.142s-0.663-0.047-0.903-0.054s-0.583-0.01-1.025-0.01V49.583z M37.82,57.708h1.25
		c1.081,0,1.872-0.249,2.373-0.747s0.752-1.291,0.752-2.378s-0.25-1.88-0.752-2.378s-1.292-0.747-2.373-0.747h-1.25V57.708z"/>
	<path fill="#FFFFFF" d="M51.023,59.759c-0.879,0-1.632-0.134-2.261-0.4s-1.128-0.657-1.499-1.172s-0.641-1.118-0.811-1.812
		s-0.254-1.499-0.254-2.417V47.61c0-0.918,0.084-1.719,0.254-2.402s0.439-1.277,0.811-1.782s0.871-0.884,1.499-1.138
		s1.382-0.381,2.261-0.381c1.706,0,2.937,0.488,3.691,1.465s1.133,2.39,1.133,4.238v6.348c0,0.905-0.086,1.704-0.259,2.397
		s-0.444,1.299-0.815,1.816s-0.871,0.911-1.499,1.182S51.896,59.759,51.023,59.759z M49.202,56.917
		c0.335,0.527,0.942,0.791,1.821,0.791s1.486-0.264,1.821-0.791s0.503-1.306,0.503-2.334v-7.598c0-1.016-0.166-1.774-0.498-2.275
		s-0.94-0.752-1.826-0.752c-0.885,0-1.494,0.251-1.826,0.752s-0.498,1.26-0.498,2.275v7.598
		C48.699,55.611,48.867,56.39,49.202,56.917z"/>
	<path fill="#FFFFFF" d="M64.91,59.466c-0.579,0.202-1.25,0.303-2.012,0.303s-1.433-0.101-2.012-0.303s-1.057-0.483-1.431-0.845
		s-0.679-0.815-0.913-1.362s-0.4-1.138-0.498-1.772s-0.146-1.353-0.146-2.153v-11.25h2.5v11.25c0,0.54,0.012,0.993,0.034,1.357
		s0.083,0.754,0.181,1.167s0.232,0.744,0.405,0.991s0.417,0.452,0.732,0.615s0.698,0.244,1.147,0.244s0.832-0.081,1.147-0.244
		s0.56-0.368,0.732-0.615s0.308-0.578,0.405-0.991s0.158-0.803,0.181-1.167s0.034-0.817,0.034-1.357v-11.25h2.5v11.25
		c0,0.801-0.049,1.519-0.146,2.153s-0.264,1.226-0.498,1.772s-0.539,1.001-0.913,1.362S65.489,59.264,64.91,59.466z"/>
	<path fill="#FFFFFF" d="M72.127,59.583V44.31h-3.125v-2.227h8.75v2.227h-3.125v15.273H72.127z"/>
</g>
</svg>
