<?xml version="1.0" encoding="utf-8"?>
<!-- Generator: Adobe Illustrator 16.0.4, SVG Export Plug-In . SVG Version: 6.00 Build 0)  -->
<!DOCTYPE svg PUBLIC "-//W3C//DTD SVG 1.1//EN" "http://www.w3.org/Graphics/SVG/1.1/DTD/svg11.dtd">
<svg version="1.1" xmlns="http://www.w3.org/2000/svg" xmlns:xlink="http://www.w3.org/1999/xlink" x="0px" y="0px" width="100px"
	 height="100px" viewBox="0 0 100 100" enable-background="new 0 0 100 100" xml:space="preserve">
<g id="Layer_2" display="none">
	<rect display="inline" fill="#231F20" width="100" height="100"/>
</g>
<g id="Layer_5">
	<g>
		<path fill="#0FF403" d="M21.557,52.282c-1.795,0.093-3.527,0.137-5.162,0.137c-6.252,0-11.196-0.574-13.809-0.958v10.318
			c8.513,1.423,16.321,1.739,23.076,1.487C23.612,59.979,22.188,56.265,21.557,52.282z"/>
		<path fill="#0FF403" d="M80.248,44.245c0.127,1.107,0.197,2.231,0.197,3.371c0,2.594-0.335,5.108-0.961,7.505
			C90.521,56.703,98,61.168,98,61.168V49.776C91.612,47.311,85.692,45.467,80.248,44.245z"/>
	</g>
	<g>
		<path fill="#0FF403" d="M74.803,30.23c2.504,3.448,4.28,7.455,5.11,11.799c5.559,1.192,11.592,3.023,18.087,5.493V37.052
			C89.14,33.487,81.449,31.297,74.803,30.23z"/>
		<path fill="#0FF403" d="M21.189,47.616c0-2.891,0.421-5.68,1.192-8.321c-11.456,0.566-19.795-1.194-19.795-1.194V49.34
			c3.007,0.46,9.999,1.304,18.723,0.867C21.234,49.352,21.189,48.49,21.189,47.616z"/>
	</g>
	<g>
		<g>
			<g>
				<g>
					<path fill="#FFFFFF" d="M35.778,60.567c-0.492,0.883-0.883,2.214-0.883,3.051c0,0.196,0,0.442,0.048,0.786l-6.152-10.581
						c-0.198-0.343-0.344-0.836-0.344-1.279c0-0.444,0.146-0.984,0.344-1.328l2.954-5.167l-3.298-1.87l10.729-0.198l5.216,9.398
						l-3.344-1.918L35.778,60.567z M40.505,30.743c0.935-1.625,2.46-2.511,4.33-2.511c2.02,0,3.594,0.937,4.726,2.854l1.674,2.805
						l-5.81,10.042l-9.399-5.462L40.505,30.743z M41.192,69.081c-2.805,0-5.118-2.314-5.118-5.118c0-0.789,0.346-2.118,0.838-2.954
						l1.573-2.806h11.665v10.878H41.192L41.192,69.081z M50.545,30.447c-0.737-1.278-1.722-2.167-2.903-2.66h12.105
						c1.083,0,1.919,0.445,2.414,1.283l3.001,5.117l3.247-1.92l-5.218,9.353l-10.678-0.15l3.297-1.869L50.545,30.447z
						 M69.199,58.303c1.476,0,2.707-0.395,3.738-1.18l-6.103,10.629c-0.492,0.836-1.377,1.329-2.41,1.329h-5.761v3.788l-5.511-9.202
						l5.511-9.205v3.841H69.199L69.199,58.303z M73.922,49.444c0.442,0.788,0.69,1.623,0.69,2.508c0,1.772-1.134,3.644-2.706,4.527
						c-0.74,0.396-1.775,0.644-2.806,0.644h-3.25l-5.806-10.042l9.399-5.365L73.922,49.444z"/>
				</g>
			</g>
		</g>
	</g>
</g>
</svg>
