<?xml version="1.0" encoding="utf-8"?>
<!-- Generator: Adobe Illustrator 16.0.4, SVG Export Plug-In . SVG Version: 6.00 Build 0)  -->
<!DOCTYPE svg PUBLIC "-//W3C//DTD SVG 1.1//EN" "http://www.w3.org/Graphics/SVG/1.1/DTD/svg11.dtd">
<svg version="1.1" id="Layer_3" xmlns="http://www.w3.org/2000/svg" xmlns:xlink="http://www.w3.org/1999/xlink" x="0px" y="0px"
	 width="100px" height="100px" viewBox="0 0 100 100" enable-background="new 0 0 100 100" xml:space="preserve">
<g>
	<path fill="#0FF403" d="M24.201,6.537c1.992,0,4.009,0.778,5.557,2.326l10.751,10.752c3.025,3.024,3.111,7.842,0.192,10.761
		c-0.819,0.82-5.865,6.234-5.865,6.234S41.85,54.142,63.073,63c0,0,5.133-5.715,5.8-6.383c0.729-0.728,1.568-1.274,2.467-1.64
		c0.901-0.367,1.86-0.55,2.819-0.55c1.913,0,3.825,0.729,5.285,2.189l10.373,10.375c2.287,2.286,2.774,5.684,1.478,8.454
		l0.006,0.006c-0.008,0.013-0.019,0.025-0.026,0.037c-0.357,0.749-0.836,1.453-1.457,2.072c-0.093,0.095-0.194,0.176-0.291,0.265
		c-6.001,7.134-11.334,9.079-15.892,9.079c-2.235,0-4.284-0.469-6.133-1.021C25.311,73.267,14.721,41.038,14.721,41.038
		c-8.12-22.33,4.275-32.366,4.275-32.366C20.422,7.246,22.3,6.537,24.201,6.537 M24.201,4.537L24.201,4.537
		c-2.482,0-4.805,0.941-6.552,2.654C16.394,8.258,4.61,19.053,12.832,41.695C13.055,42.359,15.852,50.4,23.745,60
		c7.404,9.005,20.906,21.138,43.184,27.8c1.72,0.515,4.037,1.105,6.706,1.105c6.146,0,11.814-3.166,17.327-9.68
		c0.097-0.085,0.192-0.171,0.284-0.265c0.706-0.703,1.306-1.542,1.771-2.48l0.814-1.327l-0.214-0.213
		c0.96-3.283,0.078-6.9-2.386-9.362L80.858,55.203c-1.79-1.79-4.169-2.775-6.699-2.775c-1.232,0-2.435,0.234-3.573,0.697
		c-1.171,0.476-2.223,1.175-3.126,2.077c-0.524,0.524-3.363,3.67-4.913,5.392c-16.179-7.24-23.433-19.795-25.33-23.603
		c1.825-1.954,4.369-4.669,4.899-5.201c1.798-1.798,2.764-4.21,2.717-6.791c-0.045-2.553-1.079-4.968-2.911-6.799L31.172,7.449
		C29.294,5.571,26.819,4.537,24.201,4.537L24.201,4.537z"/>
</g>
</svg>
