<?xml version="1.0" encoding="utf-8"?>
<!-- Generator: Adobe Illustrator 16.0.4, SVG Export Plug-In . SVG Version: 6.00 Build 0)  -->
<!DOCTYPE svg PUBLIC "-//W3C//DTD SVG 1.1//EN" "http://www.w3.org/Graphics/SVG/1.1/DTD/svg11.dtd">
<svg version="1.1" id="Layer_4" xmlns="http://www.w3.org/2000/svg" xmlns:xlink="http://www.w3.org/1999/xlink" x="0px" y="0px"
	 width="100px" height="100px" viewBox="0 0 100 100" enable-background="new 0 0 100 100" xml:space="preserve">
<path fill="none" stroke="#0FF403" stroke-width="2" stroke-miterlimit="10" d="M71.63,9.636H30.512
	c-1.875,0-3.396,1.522-3.396,3.398v73.933c0,1.877,1.521,3.397,3.396,3.397H71.63c1.876,0,3.398-1.521,3.398-3.397V13.034
	C75.028,11.158,73.506,9.636,71.63,9.636z M67.777,78.433H33.94V16.756h33.837V78.433z"/>
<g>
	<path fill="#0FF403" d="M51.072,82.056c1.197,0,2.167,0.97,2.167,2.167s-0.97,2.167-2.167,2.167c-1.197,0-2.167-0.97-2.167-2.167
		S49.875,82.056,51.072,82.056 M51.072,81.188c-1.673,0-3.034,1.361-3.034,3.034s1.361,3.034,3.034,3.034s3.034-1.361,3.034-3.034
		S52.745,81.188,51.072,81.188L51.072,81.188z"/>
</g>
</svg>
