<?xml version="1.0" encoding="utf-8"?>
<!-- Generator: Adobe Illustrator 16.0.4, SVG Export Plug-In . SVG Version: 6.00 Build 0)  -->
<!DOCTYPE svg PUBLIC "-//W3C//DTD SVG 1.1//EN" "http://www.w3.org/Graphics/SVG/1.1/DTD/svg11.dtd">
<svg version="1.1" xmlns="http://www.w3.org/2000/svg" xmlns:xlink="http://www.w3.org/1999/xlink" x="0px" y="0px" width="100px"
	 height="100px" viewBox="0 0 100 100" enable-background="new 0 0 100 100" xml:space="preserve">
<g id="Layer_2" display="none">
	<rect display="inline" fill="#231F20" width="100" height="100"/>
</g>
<g id="Layer_1">
	<g>
		<path fill="#0FF403" d="M21.557,52.282c-1.795,0.093-3.527,0.137-5.162,0.137c-6.252,0-11.196-0.574-13.809-0.958v10.318
			c8.513,1.423,16.321,1.739,23.076,1.487C23.612,59.979,22.188,56.265,21.557,52.282z"/>
		<path fill="#0FF403" d="M80.248,44.245c0.127,1.107,0.197,2.231,0.197,3.371c0,2.594-0.335,5.108-0.961,7.505
			C90.521,56.703,98,61.168,98,61.168V49.776C91.612,47.311,85.692,45.467,80.248,44.245z"/>
	</g>
	<g>
		<path fill="#0FF403" d="M74.803,30.23c2.504,3.448,4.28,7.455,5.11,11.799c5.559,1.192,11.592,3.023,18.087,5.493V37.052
			C89.14,33.487,81.449,31.297,74.803,30.23z"/>
		<path fill="#0FF403" d="M21.189,47.616c0-2.891,0.421-5.68,1.192-8.321c-11.456,0.566-19.795-1.194-19.795-1.194V49.34
			c3.007,0.46,9.999,1.304,18.723,0.867C21.234,49.352,21.189,48.49,21.189,47.616z"/>
	</g>
	<g>
		<g>
			<path fill="#FFFFFF" d="M48.016,75.294c-0.276,0-0.5-0.224-0.5-0.5v-4.549c-3.954-0.476-7.163-1.931-9.544-4.33
				c-2.472-2.492-3.894-5.971-4.227-10.34c-0.011-0.139,0.037-0.275,0.132-0.378s0.228-0.16,0.367-0.16h5.18
				c0.271,0,0.492,0.215,0.5,0.485c0.077,2.577,0.877,4.636,2.381,6.118c1.391,1.376,3.142,2.295,5.211,2.738V49.224
				c-2.007-0.506-3.775-1.065-5.262-1.664c-1.606-0.646-2.964-1.433-4.037-2.337c-1.098-0.926-1.915-2.07-2.429-3.402
				c-0.507-1.309-0.765-2.908-0.765-4.75c0-1.889,0.341-3.647,1.015-5.225c0.672-1.575,1.6-2.96,2.758-4.119
				c1.156-1.156,2.541-2.083,4.118-2.756c1.435-0.611,2.98-1,4.602-1.159V20.25c0-0.276,0.224-0.5,0.5-0.5h3.353
				c0.276,0,0.5,0.224,0.5,0.5v3.647c3.19,0.471,5.787,1.73,7.723,3.746c2.004,2.087,3.44,4.997,4.271,8.646
				c0.034,0.148-0.002,0.304-0.097,0.423c-0.095,0.119-0.238,0.188-0.391,0.188h-5.18c-0.238,0-0.443-0.168-0.49-0.401
				c-0.73-3.619-2.643-5.768-5.836-6.55v13.99l3.285,0.876c0.832,0.208,1.825,0.578,2.945,1.096c1.135,0.525,2.241,1.259,3.29,2.181
				c1.055,0.928,1.963,2.103,2.701,3.491c0.747,1.413,1.125,3.111,1.125,5.05c0,2.052-0.353,3.902-1.047,5.502
				c-0.694,1.601-1.667,2.999-2.889,4.156c-1.216,1.154-2.684,2.08-4.361,2.751c-1.534,0.614-3.231,1.021-5.05,1.21v4.542
				c0,0.276-0.224,0.5-0.5,0.5H48.016z M51.868,64.436c0.889-0.097,1.72-0.276,2.477-0.535c0.89-0.304,1.673-0.752,2.328-1.334
				c0.648-0.573,1.157-1.311,1.514-2.19c0.361-0.89,0.544-1.965,0.544-3.194c0-1.091-0.187-2.008-0.555-2.728
				c-0.371-0.726-0.883-1.359-1.519-1.885c-0.651-0.533-1.448-0.989-2.366-1.354c-0.768-0.303-1.58-0.589-2.423-0.854V64.436z
				 M47.516,29.718c-1.602,0.26-2.991,0.9-4.136,1.908c-1.26,1.109-1.873,2.711-1.873,4.896c0,0.979,0.159,1.821,0.473,2.503
				c0.311,0.678,0.755,1.252,1.321,1.709c0.593,0.478,1.303,0.895,2.108,1.24c0.644,0.277,1.35,0.534,2.105,0.767V29.718z"/>
			<path fill="#FFFFFF" d="M51.368,20.25v4.084c3.291,0.405,5.912,1.625,7.862,3.655c1.95,2.032,3.33,4.836,4.144,8.411h-5.18
				c-0.812-4.022-3.089-6.379-6.826-7.069v14.992l3.656,0.975c0.813,0.204,1.768,0.559,2.864,1.067
				c1.098,0.508,2.153,1.209,3.17,2.103c1.016,0.894,1.878,2.011,2.59,3.35c0.71,1.344,1.066,2.948,1.066,4.815
				c0,1.993-0.335,3.759-1.006,5.303c-0.67,1.544-1.594,2.875-2.773,3.992c-1.178,1.118-2.58,2.001-4.203,2.65
				c-1.627,0.65-3.414,1.056-5.364,1.219v4.997h-3.353v-4.997c-4.062-0.406-7.292-1.818-9.689-4.234
				c-2.398-2.417-3.758-5.76-4.083-10.025h5.18c0.081,2.723,0.923,4.875,2.53,6.46c1.604,1.585,3.626,2.579,6.062,2.985V48.833
				c-2.153-0.528-4.012-1.108-5.575-1.737c-1.564-0.629-2.865-1.381-3.901-2.255c-1.036-0.874-1.798-1.938-2.285-3.2
				c-0.488-1.259-0.731-2.781-0.731-4.57c0-1.828,0.324-3.504,0.975-5.028c0.65-1.523,1.533-2.843,2.651-3.962
				c1.116-1.116,2.437-2,3.96-2.65c1.525-0.65,3.159-1.037,4.906-1.159V20.25H51.368 M48.016,43.409V29.147
				c-1.949,0.205-3.604,0.905-4.966,2.103c-1.362,1.199-2.042,2.956-2.042,5.271c0,1.056,0.173,1.961,0.519,2.712
				c0.344,0.752,0.832,1.382,1.461,1.889c0.631,0.508,1.373,0.945,2.226,1.31C46.066,42.8,47.001,43.125,48.016,43.409
				 M51.368,64.982c1.137-0.08,2.183-0.282,3.139-0.609c0.954-0.325,1.788-0.803,2.498-1.433c0.711-0.629,1.259-1.422,1.646-2.377
				c0.387-0.954,0.58-2.081,0.58-3.382c0-1.177-0.204-2.163-0.609-2.955c-0.406-0.793-0.955-1.473-1.646-2.043
				c-0.692-0.566-1.524-1.045-2.5-1.432c-0.974-0.384-2.011-0.74-3.107-1.065V64.982 M51.368,19.25h-3.353c-0.552,0-1,0.448-1,1
				v3.115c-1.508,0.188-2.951,0.572-4.298,1.146c-1.636,0.698-3.074,1.662-4.275,2.863c-1.204,1.204-2.167,2.643-2.864,4.276
				c-0.7,1.64-1.055,3.464-1.055,5.421c0,1.905,0.269,3.564,0.798,4.932c0.545,1.41,1.411,2.623,2.573,3.603
				c1.113,0.939,2.517,1.753,4.172,2.419c1.413,0.569,3.075,1.103,4.948,1.588v14.131c-1.712-0.463-3.175-1.286-4.359-2.457
				c-1.429-1.41-2.16-3.3-2.233-5.778c-0.016-0.541-0.459-0.971-1-0.971h-5.18c-0.278,0-0.544,0.116-0.733,0.32
				c-0.189,0.204-0.285,0.478-0.264,0.756c0.342,4.491,1.812,8.075,4.37,10.653c2.373,2.392,5.532,3.875,9.399,4.417v4.11
				c0,0.553,0.448,1,1,1h3.353c0.553,0,1-0.447,1-1v-4.096c1.696-0.212,3.285-0.611,4.735-1.191
				c1.737-0.695,3.258-1.655,4.521-2.854c1.271-1.203,2.281-2.657,3.002-4.319c0.723-1.662,1.089-3.581,1.089-5.701
				c0-2.021-0.397-3.798-1.183-5.282c-0.768-1.444-1.714-2.666-2.812-3.634c-1.086-0.954-2.232-1.714-3.411-2.259
				c-1.148-0.532-2.172-0.912-3.041-1.13l-2.899-0.773V30.612c2.617,0.854,4.207,2.823,4.846,5.986
				c0.095,0.467,0.505,0.802,0.98,0.802h5.18c0.305,0,0.592-0.139,0.781-0.376c0.19-0.238,0.262-0.549,0.193-0.845
				c-0.851-3.74-2.33-6.728-4.396-8.882c-1.928-2.007-4.476-3.292-7.584-3.826V20.25C52.368,19.698,51.921,19.25,51.368,19.25
				L51.368,19.25z M47.016,42.053c-0.497-0.169-0.967-0.349-1.407-0.539c-0.766-0.328-1.436-0.722-1.994-1.17
				c-0.512-0.413-0.898-0.913-1.179-1.526c-0.284-0.618-0.428-1.39-0.428-2.296c0-2.033,0.557-3.512,1.703-4.521
				c0.948-0.833,2.036-1.387,3.305-1.677V42.053L47.016,42.053z M52.368,63.866V51.05c0.601,0.2,1.183,0.412,1.74,0.632
				c0.868,0.345,1.621,0.774,2.234,1.276c0.588,0.485,1.043,1.051,1.389,1.725c0.331,0.647,0.499,1.488,0.499,2.499
				c0,1.165-0.171,2.177-0.507,3.006c-0.327,0.809-0.792,1.482-1.381,2.004c-0.607,0.539-1.333,0.954-2.158,1.235
				C53.62,63.619,53.013,63.767,52.368,63.866L52.368,63.866z"/>
		</g>
	</g>
</g>
</svg>
