<?xml version="1.0" encoding="utf-8"?>
<!-- Generator: Adobe Illustrator 16.0.4, SVG Export Plug-In . SVG Version: 6.00 Build 0)  -->
<!DOCTYPE svg PUBLIC "-//W3C//DTD SVG 1.1//EN" "http://www.w3.org/Graphics/SVG/1.1/DTD/svg11.dtd">
<svg version="1.1" xmlns="http://www.w3.org/2000/svg" xmlns:xlink="http://www.w3.org/1999/xlink" x="0px" y="0px" width="100px"
	 height="100px" viewBox="0 0 100 100" enable-background="new 0 0 100 100" xml:space="preserve">
<g id="Layer_2" display="none">
	<rect display="inline" fill="#231F20" width="100" height="100"/>
</g>
<g id="Layer_1">
	<g>
		<path fill="#0FF403" d="M21.557,52.282c-1.795,0.093-3.527,0.137-5.162,0.137c-6.252,0-11.196-0.574-13.809-0.958v10.318
			c8.513,1.423,16.321,1.739,23.076,1.487C23.612,59.979,22.188,56.265,21.557,52.282z"/>
		<path fill="#0FF403" d="M80.248,44.245c0.127,1.107,0.197,2.231,0.197,3.371c0,2.594-0.335,5.108-0.961,7.505
			C90.521,56.703,98,61.168,98,61.168V49.776C91.612,47.311,85.692,45.467,80.248,44.245z"/>
	</g>
	<g>
		<path fill="#0FF403" d="M74.803,30.23c2.504,3.448,4.28,7.455,5.11,11.799c5.559,1.192,11.592,3.023,18.087,5.493V37.052
			C89.14,33.487,81.449,31.297,74.803,30.23z"/>
		<path fill="#0FF403" d="M21.189,47.616c0-2.891,0.421-5.68,1.192-8.321c-11.456,0.566-19.795-1.194-19.795-1.194V49.34
			c3.007,0.46,9.999,1.304,18.723,0.867C21.234,49.352,21.189,48.49,21.189,47.616z"/>
	</g>
	<g>
		<g>
			<path fill="#FFFFFF" d="M41.953,61.997c1.604,1.585,3.626,2.579,6.062,2.985V48.833c-2.153-0.528-4.012-1.108-5.575-1.737
				c-1.564-0.629-2.865-1.381-3.901-2.255c-1.036-0.874-1.798-1.938-2.285-3.2c-0.488-1.259-0.731-2.781-0.731-4.57
				c0-1.828,0.324-3.504,0.975-5.028c0.65-1.523,1.533-2.843,2.651-3.962c1.116-1.116,2.437-2,3.96-2.65
				c1.525-0.65,3.159-1.037,4.906-1.159V20.25h3.353v4.084c3.291,0.405,5.912,1.625,7.862,3.655c1.95,2.032,3.33,4.836,4.144,8.411
				h-5.18c-0.812-4.022-3.089-6.379-6.826-7.069v14.992l3.656,0.975c0.813,0.204,1.768,0.559,2.864,1.067
				c1.098,0.508,2.153,1.209,3.17,2.103c1.016,0.894,1.878,2.011,2.59,3.35c0.71,1.344,1.066,2.948,1.066,4.815
				c0,1.993-0.335,3.759-1.006,5.303c-0.67,1.544-1.594,2.875-2.773,3.992c-1.178,1.118-2.58,2.001-4.203,2.65
				c-1.627,0.65-3.414,1.056-5.364,1.219v4.997h-3.353v-4.997c-4.062-0.406-7.292-1.818-9.689-4.234
				c-2.398-2.417-3.758-5.76-4.083-10.025h5.18C39.504,58.26,40.346,60.412,41.953,61.997z M43.05,31.25
				c-1.362,1.199-2.042,2.956-2.042,5.271c0,1.056,0.173,1.961,0.519,2.712c0.344,0.752,0.832,1.382,1.461,1.889
				c0.631,0.508,1.373,0.945,2.226,1.31c0.853,0.367,1.788,0.691,2.802,0.976V29.147C46.066,29.353,44.412,30.052,43.05,31.25z
				 M54.507,64.373c0.954-0.325,1.788-0.803,2.498-1.433c0.711-0.629,1.259-1.422,1.646-2.377c0.387-0.954,0.58-2.081,0.58-3.382
				c0-1.177-0.204-2.163-0.609-2.955c-0.406-0.793-0.955-1.473-1.646-2.043c-0.692-0.566-1.524-1.045-2.5-1.432
				c-0.974-0.384-2.011-0.74-3.107-1.065v15.296C52.505,64.902,53.551,64.7,54.507,64.373z"/>
		</g>
	</g>
</g>
</svg>
